<svg width="81" height="81" viewBox="0 0 81 81" fill="none" xmlns="http://www.w3.org/2000/svg">
<path d="M10.9597 43.9837H16.4471C16.5338 44.5212 16.7852 44.9893 17.2013 45.3881C17.6174 45.7868 18.1722 46.0989 18.8657 46.3243C19.5766 46.5324 20.4088 46.6364 21.3624 46.6364C22.68 46.6364 23.7203 46.4717 24.4832 46.1423C25.246 45.7955 25.6275 45.2927 25.6275 44.6339C25.6275 44.1311 25.4107 43.741 24.9773 43.4636C24.5438 43.1862 23.7116 42.9868 22.4806 42.8654L18.8397 42.5273C16.1523 42.2846 14.2018 41.6778 12.9882 40.7069C11.7746 39.7186 11.1677 38.3923 11.1677 36.7278C11.1677 35.3755 11.5578 34.2312 12.338 33.295C13.1356 32.3587 14.2452 31.6565 15.6669 31.1884C17.1059 30.703 18.779 30.4602 20.6862 30.4602C22.5587 30.4602 24.2231 30.729 25.6795 31.2664C27.1358 31.7866 28.2888 32.5321 29.1384 33.503C30.0052 34.4739 30.4734 35.6009 30.5427 36.8839H25.0813C25.012 36.4158 24.7866 36.017 24.4051 35.6876C24.041 35.3408 23.5382 35.0807 22.8968 34.9074C22.2553 34.7167 21.4837 34.6213 20.5822 34.6213C19.3685 34.6213 18.4063 34.786 17.6954 35.1154C16.9846 35.4275 16.6291 35.8956 16.6291 36.5198C16.6291 36.9706 16.8372 37.3347 17.2533 37.6121C17.6867 37.8895 18.4583 38.0802 19.5679 38.1842L23.4429 38.5743C25.298 38.7477 26.7804 39.0511 27.89 39.4845C28.9997 39.9007 29.8059 40.4815 30.3087 41.227C30.8115 41.9725 31.0629 42.9001 31.0629 44.0097C31.0629 45.3794 30.6554 46.5757 29.8405 47.5986C29.0257 48.6042 27.8814 49.3931 26.4077 49.9652C24.9339 50.5201 23.2175 50.7975 21.2583 50.7975C19.2471 50.7975 17.47 50.5201 15.927 49.9652C14.4012 49.3931 13.2049 48.5956 12.338 47.5726C11.4711 46.5324 11.0117 45.336 10.9597 43.9837ZM58.4977 30.8763V47.9887L56.0791 45.5961H70.6688V50.3813H53.1143V30.8763H58.4977Z" fill="#ED1C2E"/>
<path d="M51.6348 49.9252L42.2023 31.296C42.0018 30.8999 41.4361 30.8999 41.2356 31.296L31.8031 49.9252C31.5522 50.4207 32.1205 50.9279 32.5844 50.6225L41.421 44.805C41.6018 44.686 41.8361 44.686 42.0169 44.805L50.8535 50.6225C51.3174 50.9279 51.8857 50.4207 51.6348 49.9252Z" fill="#ED1C2E"/>
<path d="M41.719 79.6455V47.679C41.719 63.1746 27.0903 71.5509 19.7759 73.8022L41.719 79.6455Z" fill="#ED1C2E"/>
<path d="M41.719 79.6455V47.679C41.719 63.1746 56.3477 71.5509 63.6621 73.8022L41.719 79.6455Z" fill="#ED1C2E"/>
<circle cx="40.5" cy="40.5" r="37.791" stroke="#ED1C2E" stroke-width="5.41806"/>
</svg>
