<svg width="302" height="50" viewBox="0 0 302 50" fill="none" xmlns="http://www.w3.org/2000/svg">
<path d="M0 26L232 26C119.539 26 58.747 10 42.4086 2L0 26Z" fill="#111111"/>
<path d="M0 26L232 26C119.539 26 58.747 42 42.4086 50L0 26Z" fill="#111111"/>
<path d="M239.75 47.2323L296.726 26.8835C298.496 26.2514 298.496 23.7486 296.726 23.1165L239.75 2.76769C237.775 2.06267 236.185 4.48339 237.615 6.01582L254.06 23.6354C254.777 24.4038 254.777 25.5962 254.06 26.3646L237.615 43.9842C236.185 45.5166 237.775 47.9373 239.75 47.2323Z" fill="#111111"/>
</svg>
